<svg width="74" height="80" viewBox="0 0 74 80" fill="none" xmlns="http://www.w3.org/2000/svg">
<path fill-rule="evenodd" clip-rule="evenodd" d="M50.5118 4.11012C49.2466 0.40699 46.7257 0 41.823 0C37.6505 0 34.0359 1.96626 32.2718 4.83455C31.8924 4.81432 29.9535 5.1243 29.5679 5.1243C22.6937 5.1243 17.6486 7.47793 14.7839 12.2236C7.39197 13.2378 1.23199 17.2946 0 25.6216C0 31.6504 5.0588 36.7065 11.8726 38.0703C14.2933 41.1775 18.526 43.2365 23.343 43.2365C25.2937 43.2365 27.1486 42.8988 28.8261 42.2906L29.1788 42.4358L34.0419 46.4392V52.8446L33.0693 54.4459C33.0693 54.4459 32.2065 56.1555 31.1241 56.848C30.4538 57.2768 29.8769 57.2509 29.1788 57.6486C28.2949 58.1522 27.4403 59.25 27.4403 59.25H51.5718C51.5718 59.25 50.3278 58.0299 48.1337 57.8393C45.9397 57.6486 43.8361 56.0019 42.7956 54.4459C41.7551 52.89 42.5563 46.9904 42.7956 46.4392C43.5406 44.7231 44.006 44.053 44.6956 42.3214C45.2362 40.964 46.3417 38.8155 46.3417 38.8155C48.1964 39.5945 50.2968 40.0338 52.5219 40.0338C59.5121 40.0338 65.2721 35.6977 66.0494 30.1146C70.5856 29.0935 73.9196 25.6764 73.9196 21.6182C73.9196 16.754 69.1296 12.8108 63.2208 12.8108C62.7629 12.8108 62.0425 12.1777 61.5997 12.2236C60.4063 8.6372 55.1855 4.31356 50.5118 4.11012ZM38.9051 36.8311C39.8357 36.8311 40.7444 36.7543 41.6225 36.6078L39.8777 41.6351L37.9324 44.0372L35.0146 43.2365L31.95 40.7137C33.6062 39.6003 34.9381 38.1723 35.811 36.5405C36.805 36.7306 37.8408 36.8311 38.9051 36.8311Z" fill="#050B05"/>
<path d="M28.5 63C17.5 61 30 55 30 55H27C19.5 56.5 14 58 14 63C14 68 19.5 70 27 73C34.5 76 36.3498 79.0465 36.3498 79.0465H63.5C63.5 79.0465 53.709 67.5834 28.5 63Z" fill="#050B05"/>
</svg>
